<svg width="21" height="21" viewBox="0 0 21 21" fill="none" xmlns="http://www.w3.org/2000/svg">
<path fill-rule="evenodd" clip-rule="evenodd" d="M4.24992 0.083252C1.94873 0.083252 0.083252 1.94873 0.083252 4.24992V16.7499C0.083252 19.0511 1.94873 20.9166 4.24992 20.9166H9.83225V12.8462H7.37492V9.68872H9.8269V7.37152C9.8269 4.67647 11.3247 3.20842 13.5062 3.20842C14.2417 3.20526 14.9769 3.24698 15.7083 3.33338V6.14846H14.2051C13.0188 6.14846 12.7886 6.77229 12.7886 7.68343V9.69462H15.6235L15.2566 12.8521H12.7886V20.9166H16.7499C19.0511 20.9166 20.9166 19.0511 20.9166 16.7499V4.24992C20.9166 1.94873 19.0511 0.083252 16.7499 0.083252H4.24992Z" fill="white"/>
</svg>
