<svg width="21" height="21" viewBox="0 0 21 21" fill="none" xmlns="http://www.w3.org/2000/svg">
<path fill-rule="evenodd" clip-rule="evenodd" d="M4.16667 0C1.86548 0 0 1.86548 0 4.16667V16.6666C0 18.9678 1.86548 20.8333 4.16667 20.8333H9.749V12.7629H7.29167V9.60547H9.74365V7.28827C9.74365 4.59322 11.2414 3.12517 13.4229 3.12517C14.1584 3.12201 14.8936 3.16373 15.625 3.25013V6.06521H14.1218C12.9355 6.06521 12.7053 6.68904 12.7053 7.60018V9.61137H15.5402L15.1733 12.7688H12.7053V20.8333H16.6666C18.9678 20.8333 20.8333 18.9678 20.8333 16.6666V4.16667C20.8333 1.86548 18.9678 0 16.6666 0H4.16667Z" fill="#011832"/>
</svg>
