<svg width="21" height="21" viewBox="0 0 21 21" fill="none" xmlns="http://www.w3.org/2000/svg">
<path d="M10.4166 0C13.2468 0 13.6 0.0104166 14.7104 0.0625C15.8197 0.114583 16.575 0.288542 17.2395 0.546875C17.927 0.811458 18.5062 1.16979 19.0854 1.74792C19.6151 2.26864 20.0249 2.89853 20.2864 3.59375C20.5437 4.25729 20.7187 5.01354 20.7708 6.12292C20.8197 7.23334 20.8333 7.58646 20.8333 10.4166C20.8333 13.2468 20.8229 13.6 20.7708 14.7104C20.7187 15.8197 20.5437 16.575 20.2864 17.2395C20.0257 17.9351 19.6157 18.5652 19.0854 19.0854C18.5645 19.6149 17.9347 20.0247 17.2395 20.2864C16.576 20.5437 15.8197 20.7187 14.7104 20.7708C13.6 20.8197 13.2468 20.8333 10.4166 20.8333C7.58646 20.8333 7.23334 20.8229 6.12292 20.7708C5.01354 20.7187 4.25834 20.5437 3.59375 20.2864C2.89826 20.0254 2.26826 19.6155 1.74792 19.0854C1.21813 18.5647 0.808262 17.9348 0.546875 17.2395C0.288542 16.576 0.114583 15.8197 0.0625 14.7104C0.0135416 13.6 0 13.2468 0 10.4166C0 7.58646 0.0104166 7.23334 0.0625 6.12292C0.114583 5.0125 0.288542 4.25834 0.546875 3.59375C0.807538 2.89811 1.21751 2.26804 1.74792 1.74792C2.26841 1.21795 2.89837 0.808051 3.59375 0.546875C4.25834 0.288542 5.0125 0.114583 6.12292 0.0625C7.23334 0.0135416 7.58646 0 10.4166 0ZM10.4166 5.20834C9.03533 5.20834 7.71057 5.75707 6.73382 6.73382C5.75707 7.71057 5.20834 9.03533 5.20834 10.4166C5.20834 11.798 5.75707 13.1227 6.73382 14.0995C7.71057 15.0762 9.03533 15.625 10.4166 15.625C11.798 15.625 13.1227 15.0762 14.0995 14.0995C15.0762 13.1227 15.625 11.798 15.625 10.4166C15.625 9.03533 15.0762 7.71057 14.0995 6.73382C13.1227 5.75707 11.798 5.20834 10.4166 5.20834ZM17.1875 4.94792C17.1875 4.60258 17.0503 4.27139 16.8061 4.02721C16.5619 3.78302 16.2307 3.64584 15.8854 3.64584C15.54 3.64584 15.2088 3.78302 14.9647 4.02721C14.7205 4.27139 14.5833 4.60258 14.5833 4.94792C14.5833 5.29325 14.7205 5.62444 14.9647 5.86863C15.2088 6.11282 15.54 6.25 15.8854 6.25C16.2307 6.25 16.5619 6.11282 16.8061 5.86863C17.0503 5.62444 17.1875 5.29325 17.1875 4.94792ZM10.4166 7.29167C11.2454 7.29167 12.0403 7.62091 12.6263 8.20696C13.2124 8.79301 13.5416 9.58787 13.5416 10.4166C13.5416 11.2454 13.2124 12.0403 12.6263 12.6263C12.0403 13.2124 11.2454 13.5416 10.4166 13.5416C9.58787 13.5416 8.79301 13.2124 8.20696 12.6263C7.62091 12.0403 7.29167 11.2454 7.29167 10.4166C7.29167 9.58787 7.62091 8.79301 8.20696 8.20696C8.79301 7.62091 9.58787 7.29167 10.4166 7.29167Z" fill="#011832"/>
</svg>
