<svg width="21" height="21" viewBox="0 0 21 21" fill="none" xmlns="http://www.w3.org/2000/svg">
<path d="M10.4999 0.083252C13.3301 0.083252 13.6833 0.0936686 14.7937 0.145752C15.903 0.197835 16.6583 0.371794 17.3228 0.630127C18.0103 0.89471 18.5895 1.25304 19.1687 1.83117C19.6984 2.35189 20.1082 2.98178 20.3697 3.677C20.627 4.34054 20.802 5.09679 20.8541 6.20617C20.903 7.31659 20.9166 7.66971 20.9166 10.4999C20.9166 13.3301 20.9062 13.6833 20.8541 14.7937C20.802 15.903 20.627 16.6583 20.3697 17.3228C20.109 18.0184 19.699 18.6485 19.1687 19.1687C18.6478 19.6982 18.018 20.108 17.3228 20.3697C16.6593 20.627 15.903 20.802 14.7937 20.8541C13.6833 20.903 13.3301 20.9166 10.4999 20.9166C7.66971 20.9166 7.31659 20.9062 6.20617 20.8541C5.09679 20.802 4.34159 20.627 3.677 20.3697C2.98151 20.1087 2.35151 19.6988 1.83117 19.1687C1.30138 18.648 0.891514 18.0181 0.630127 17.3228C0.371794 16.6593 0.197835 15.903 0.145752 14.7937C0.0967936 13.6833 0.083252 13.3301 0.083252 10.4999C0.083252 7.66971 0.0936686 7.31659 0.145752 6.20617C0.197835 5.09575 0.371794 4.34159 0.630127 3.677C0.89079 2.98136 1.30076 2.35129 1.83117 1.83117C2.35166 1.3012 2.98162 0.891303 3.677 0.630127C4.34159 0.371794 5.09575 0.197835 6.20617 0.145752C7.31659 0.0967936 7.66971 0.083252 10.4999 0.083252ZM10.4999 5.29159C9.11858 5.29159 7.79382 5.84032 6.81707 6.81707C5.84032 7.79382 5.29159 9.11858 5.29159 10.4999C5.29159 11.8813 5.84032 13.206 6.81707 14.1828C7.79382 15.1595 9.11858 15.7083 10.4999 15.7083C11.8813 15.7083 13.206 15.1595 14.1828 14.1828C15.1595 13.206 15.7083 11.8813 15.7083 10.4999C15.7083 9.11858 15.1595 7.79382 14.1828 6.81707C13.206 5.84032 11.8813 5.29159 10.4999 5.29159ZM17.2708 5.03117C17.2708 4.68583 17.1336 4.35464 16.8894 4.11046C16.6452 3.86627 16.314 3.72909 15.9687 3.72909C15.6233 3.72909 15.2921 3.86627 15.048 4.11046C14.8038 4.35464 14.6666 4.68583 14.6666 5.03117C14.6666 5.3765 14.8038 5.70769 15.048 5.95188C15.2921 6.19607 15.6233 6.33325 15.9687 6.33325C16.314 6.33325 16.6452 6.19607 16.8894 5.95188C17.1336 5.70769 17.2708 5.3765 17.2708 5.03117ZM10.4999 7.37492C11.3287 7.37492 12.1236 7.70416 12.7096 8.29021C13.2957 8.87626 13.6249 9.67112 13.6249 10.4999C13.6249 11.3287 13.2957 12.1236 12.7096 12.7096C12.1236 13.2957 11.3287 13.6249 10.4999 13.6249C9.67112 13.6249 8.87626 13.2957 8.29021 12.7096C7.70416 12.1236 7.37492 11.3287 7.37492 10.4999C7.37492 9.67112 7.70416 8.87626 8.29021 8.29021C8.87626 7.70416 9.67112 7.37492 10.4999 7.37492Z" fill="white"/>
</svg>
