<svg width="25" height="19" viewBox="0 0 25 19" fill="none" xmlns="http://www.w3.org/2000/svg">
<path d="M24.8362 4.14014C24.8362 1.94287 23.22 0.175293 21.2229 0.175293C18.5178 0.048828 15.759 0 12.9397 0H12.0608C9.24834 0 6.48467 0.048828 3.77959 0.175781C1.7874 0.175781 0.171195 1.95312 0.171195 4.15039C0.049125 5.88818 -0.00263276 7.62646 0.000296928 9.36474C-0.00458589 11.103 0.0507526 12.8429 0.166312 14.5845C0.166312 16.7817 1.78252 18.564 3.77471 18.564C6.6165 18.6958 9.53154 18.7544 12.4954 18.7495C15.4641 18.7593 18.371 18.6974 21.2161 18.564C23.2131 18.564 24.8294 16.7817 24.8294 14.5845C24.9465 12.8413 25.0003 11.103 24.9954 9.35986C25.0064 7.62158 24.9534 5.88167 24.8362 4.14014ZM10.1077 14.1548V4.56006L17.1878 9.35498L10.1077 14.1548Z" fill="#011832"/>
</svg>
