<svg width="25" height="19" viewBox="0 0 25 19" fill="none" xmlns="http://www.w3.org/2000/svg">
<path d="M24.836 4.26514C24.836 2.06787 23.2198 0.300293 21.2227 0.300293C18.5176 0.173828 15.7588 0.125 12.9395 0.125H12.0606C9.2481 0.125 6.48443 0.173828 3.77935 0.300781C1.78716 0.300781 0.170951 2.07812 0.170951 4.27539C0.0488809 6.01318 -0.0028769 7.75146 5.27871e-05 9.48974C-0.00483003 11.228 0.0505085 12.9679 0.166068 14.7095C0.166068 16.9067 1.78228 18.689 3.77447 18.689C6.61626 18.8208 9.5313 18.8794 12.4952 18.8745C15.4639 18.8843 18.3708 18.8224 21.2159 18.689C23.2129 18.689 24.8292 16.9067 24.8292 14.7095C24.9463 12.9663 25.0001 11.228 24.9952 9.48486C25.0062 7.74658 24.9532 6.00667 24.836 4.26514ZM10.1075 14.2798V4.68506L17.1876 9.47998L10.1075 14.2798Z" fill="white"/>
</svg>
